<svg width="59" height="50" viewBox="0 0 59 50" fill="none" xmlns="http://www.w3.org/2000/svg">
<path id="Vector" d="M42.0734 37.8368L45.0666 42.9985C46.613 45.6651 44.6889 49.005 41.6063 49.005H38.6083C37.1819 49.005 35.8635 48.2455 35.148 47.0116L32.1548 41.8499C30.6085 39.1832 32.5325 35.8433 35.6151 35.8433H38.6131C40.0395 35.8433 41.3579 36.6029 42.0734 37.8368ZM2.50985 42.9984L16.7615 18.4223H42.9258C46.0083 18.4223 47.9324 21.7622 46.3861 24.4288L44.8792 27.0275C44.1637 28.2614 42.8452 29.021 41.4189 29.021H26.3174C24.1779 29.021 22.2003 30.1602 21.127 32.011L12.428 47.0117C11.7124 48.2455 10.394 49.005 8.9677 49.005H5.97013C2.88754 49.005 0.963464 45.6651 2.50985 42.9984ZM16.1864 18.4223H16.2459C16.1897 18.425 16.1334 18.423 16.0776 18.4165C16.1133 18.4203 16.1496 18.4223 16.1864 18.4223ZM15.6838 18.2873C15.7098 18.3024 15.7366 18.3164 15.7641 18.3293C15.7366 18.3167 15.7096 18.303 15.6833 18.2881L15.6838 18.2873ZM13.457 9.60523L11.9501 7.00652C10.4038 4.33986 12.3279 1 15.4104 1H53.0291C56.1116 1 58.0357 4.33986 56.4894 7.00652L54.9825 9.60522C54.267 10.8392 52.9486 11.5987 51.5222 11.5987H16.9173C15.4909 11.5987 14.1725 10.8392 13.457 9.60523Z" fill="white" fill-opacity="0.5" stroke="url(#paint0_linear_1_1118)" stroke-width="2"/>
<defs>
<linearGradient id="paint0_linear_1_1118" x1="29.4995" y1="0" x2="29.4995" y2="50.005" gradientUnits="userSpaceOnUse">
<stop stop-color="#E600A5"/>
<stop offset="1" stop-color="#EBEA55"/>
</linearGradient>
</defs>
</svg>
